<svg xmlns="http://www.w3.org/2000/svg" width="1000" height="1000" viewBox="0 0 1000 1000">
  <defs>
    <!-- Film grain texture -->
    <filter id="noise" x="0%" y="0%" width="100%" height="100%">
      <feTurbulence type="fractalNoise" baseFrequency="0.65" numOctaves="3" stitchTiles="stitch" />
      <feColorMatrix type="matrix" values="1 0 0 0 0 0 1 0 0 0 0 0 1 0 0 0 0 0 0.03 0" />
    </filter>
    
    <!-- Radial gradient for cinematic lighting -->
    <radialGradient id="cinematicGlow" cx="50%" cy="30%" r="70%" fx="50%" fy="30%">
      <stop offset="0%" style="stop-color:#444444;stop-opacity:0.8" />
      <stop offset="100%" style="stop-color:#000000;stop-opacity:1" />
    </radialGradient>
  </defs>
  
  <!-- Base black background -->
  <rect width="100%" height="100%" fill="#000000" />
  
  <!-- Cinematic gradient overlay -->
  <rect width="100%" height="100%" fill="url(#cinematicGlow)" />
  
  <!-- Abstract geometric patterns -->
  <g opacity="0.15" stroke="#FFFFFF" stroke-width="0.5" fill="none">
    <!-- Grid pattern -->
    <path d="M0,200 H1000 M0,400 H1000 M0,600 H1000 M0,800 H1000" />
    <path d="M200,0 V1000 M400,0 V1000 M600,0 V1000 M800,0 V1000" />
    
    <!-- Diagonal lines -->
    <path d="M0,0 L1000,1000 M1000,0 L0,1000" />
    
    <!-- Circles -->
    <circle cx="500" cy="500" r="300" />
    <circle cx="500" cy="500" r="150" />
  </g>
  
  <!-- Subtle star field -->
  <g fill="#FFFFFF">
    <!-- Random stars - these would be generated dynamically in a real scenario -->
    <circle cx="100" cy="150" r="1" opacity="0.7" />
    <circle cx="300" cy="250" r="1.5" opacity="0.5" />
    <circle cx="700" cy="400" r="1" opacity="0.6" />
    <circle cx="850" cy="650" r="1.2" opacity="0.7" />
    <circle cx="450" cy="750" r="1" opacity="0.5" />
    <circle cx="200" cy="900" r="0.8" opacity="0.6" />
    <circle cx="600" cy="100" r="1.3" opacity="0.8" />
    <circle cx="900" cy="300" r="1" opacity="0.7" />
    <circle cx="150" cy="450" r="0.9" opacity="0.5" />
    <circle cx="350" cy="600" r="1.1" opacity="0.6" />
    <circle cx="550" cy="850" r="1.4" opacity="0.7" />
    <circle cx="750" cy="200" r="1" opacity="0.5" />
    <circle cx="950" cy="550" r="1.2" opacity="0.6" />
  </g>
  
  <!-- Film grain overlay -->
  <rect width="100%" height="100%" filter="url(#noise)" opacity="0.05" />
</svg>
